<svg xmlns="http://www.w3.org/2000/svg" width="264" height="32" viewBox="0 0 264 32" fill="none"><path d="M244.787 19.6047C244.787 20.3219 245.408 20.7958 246.386 20.7958V20.8045C246.422 20.8077 246.458 20.8108 246.495 20.8124C247.594 20.8574 248.523 20.0004 248.568 18.8993V18.2311L246.53 18.3598C245.386 18.4285 244.787 18.8614 244.787 19.6047Z" fill="#999999"></path><path d="M238.173 11.8259H236.059V16.5234H238.166C239.764 16.5234 240.673 15.6663 240.673 14.1711C240.673 12.6758 239.764 11.8259 238.173 11.8259Z" fill="#999999"></path><path fill-rule="evenodd" clip-rule="evenodd" d="M220.394 0.918457C218.252 0.918457 216.516 2.65792 216.516 4.80365V28.1148C216.516 30.2605 218.252 32 220.394 32H259.182C261.324 32 263.06 30.2605 263.06 28.1148V4.80365C263.06 2.65792 261.324 0.918457 259.182 0.918457H220.394ZM255.962 22.5715C255.227 24.6425 254.386 25.3258 252.598 25.3258V25.3353C252.365 25.336 252.132 25.321 251.901 25.2894V23.8677C252.014 23.8827 252.294 23.8977 252.439 23.8977C253.195 23.953 253.867 23.4182 253.984 22.6686L254.151 22.1449L251.044 13.5352H252.961L255.121 20.5241H255.158L257.317 13.5258H259.182L255.962 22.5715ZM248.598 20.6892C248.041 21.6505 247.003 22.2294 245.894 22.1994L245.893 22.2081C244.188 22.2081 242.999 21.1915 243 19.6521C243 18.1339 244.152 17.2611 246.281 17.1324L248.568 16.9957V16.3433C248.568 15.3796 247.939 14.8559 246.818 14.8559C246.02 14.769 245.28 15.2832 245.083 16.0629H243.431C243.484 14.5297 244.924 13.4144 246.871 13.4144C248.97 13.4144 250.333 14.5147 250.333 16.2224V22.111H248.636V20.6892H248.598ZM234.226 22.1086V10.2778L238.658 10.2896C238.779 10.2841 238.899 10.2833 239.02 10.2888C241.064 10.3876 242.642 12.1269 242.544 14.175C242.549 14.2927 242.548 14.4096 242.542 14.5273C242.431 16.5984 240.665 18.1868 238.598 18.0755H236.059V22.1086H234.226ZM226.442 12.8643C226.915 12.6785 227.499 12.4485 228.141 12.4855L228.142 12.4784C229.081 12.5116 229.95 12.9839 230.49 13.7532C229.642 14.2769 229.12 15.1979 229.104 16.1963C229.11 17.3282 229.781 18.3496 230.816 18.8029C230.613 19.4483 230.318 20.0604 229.938 20.6197C229.398 21.4095 228.845 22.1844 227.966 22.1994C227.552 22.2071 227.271 22.0861 226.979 21.9602C226.674 21.8285 226.356 21.6915 225.86 21.6915C225.341 21.6915 225.008 21.8329 224.689 21.9689C224.41 22.0871 224.142 22.2013 223.769 22.2152C222.921 22.246 222.276 21.3811 221.738 20.5912C220.64 18.998 219.799 16.0992 220.935 14.1411C221.469 13.1727 222.475 12.5605 223.579 12.5321C224.054 12.5231 224.509 12.7035 224.905 12.8606C225.204 12.9795 225.47 13.085 225.686 13.085C225.881 13.085 226.139 12.9838 226.442 12.8643ZM225.574 12.3433C226.316 12.3567 227.022 12.0226 227.483 11.4405L227.481 11.4381C227.962 10.8662 228.2 10.1301 228.148 9.38442C227.415 9.45314 226.737 9.80385 226.256 10.3631C225.772 10.9049 225.526 11.6182 225.574 12.3433Z" fill="#999999"></path><path d="M192.866 16.8785C193.149 16.8847 193.433 16.8815 193.716 16.8783C194.183 16.8729 194.649 16.8676 195.113 16.9042C195.868 17.0453 196.05 18.19 195.379 18.5649C195.073 18.7303 194.728 18.7155 194.384 18.7007C194.215 18.6934 194.046 18.6861 193.882 18.7005H192.866V16.8785Z" fill="#999999"></path><path d="M195.546 14.8163C195.712 15.4042 195.146 15.9321 194.581 15.8511H192.866C192.871 15.6384 192.869 15.4188 192.866 15.1992C192.862 14.8463 192.859 14.4934 192.884 14.1697C193.143 14.177 193.403 14.1732 193.663 14.1694C194.092 14.163 194.521 14.1567 194.947 14.2005C195.24 14.2744 195.486 14.516 195.546 14.8163Z" fill="#999999"></path><path d="M199.672 6.09786C199.692 6.79271 199.689 7.51029 199.686 8.22786C199.684 8.66976 199.682 9.11165 199.686 9.54823C199.685 11.2789 199.685 13.0095 199.686 14.7401V14.7485C199.686 17.6723 199.687 20.5962 199.682 23.5202C199.652 25.2656 198.108 26.7823 196.377 26.8171C195.298 26.8215 194.22 26.8209 193.141 26.8202H193.138C192.485 26.8198 191.833 26.8194 191.18 26.8202V19.7793C191.897 19.7756 192.615 19.7776 193.332 19.7795C194.502 19.7828 195.673 19.786 196.843 19.7645C197.718 19.7095 198.677 19.131 198.718 18.1662C198.821 17.1973 197.909 16.527 197.043 16.4212C196.71 16.4125 196.72 16.324 197.043 16.2854C197.869 16.1066 198.517 15.2504 198.274 14.3929C198.067 13.491 197.072 13.142 196.244 13.1437C195.201 13.1366 194.159 13.1377 193.116 13.1387C192.471 13.1394 191.826 13.14 191.181 13.1388C191.185 12.6471 191.182 12.1552 191.18 11.6633C191.177 10.8402 191.173 10.0172 191.199 9.195C191.332 7.48108 192.916 6.06765 194.622 6.09831L199.672 6.09786Z" fill="#999999"></path><path d="M175.43 6.10018C173.701 6.12565 172.151 7.62986 172.107 9.37253C172.103 10.1912 172.097 11.0742 172.09 11.9822C172.075 14.0465 172.059 16.2419 172.063 18.1092C172.063 18.1092 174.102 18.867 175.131 18.8561C175.96 18.886 176.831 18.3262 176.911 17.4451C176.942 16.5512 176.937 15.6557 176.933 14.7601C176.93 14.2196 176.928 13.679 176.933 13.1388H179.898V15.3088C179.886 15.6011 179.892 15.8957 179.898 16.1905C179.911 16.838 179.924 17.4861 179.748 18.1117C179.402 19.176 178.281 19.6798 177.257 19.8449C175.544 20.1085 173.782 19.9393 172.103 19.5419V26.8201C172.758 26.8194 173.413 26.8198 174.068 26.8202C175.142 26.8208 176.216 26.8214 177.29 26.8175C179 26.787 180.534 25.3115 180.6 23.59C180.61 19.9829 180.609 16.3755 180.607 12.7681C180.606 10.5447 180.605 8.32123 180.607 6.09788C179.949 6.09846 179.29 6.09816 178.632 6.09786C177.564 6.09738 176.497 6.09689 175.43 6.10018Z" fill="#999999"></path><path d="M181.713 14.0141C181.615 14.035 181.628 13.8179 181.641 13.6008C181.649 13.4735 181.656 13.3463 181.642 13.2669C181.646 12.7613 181.644 12.2555 181.641 11.7496C181.638 10.8982 181.635 10.0464 181.66 9.19589C181.793 7.47472 183.388 6.05776 185.102 6.09805H190.146C190.145 8.32255 190.145 10.5472 190.146 12.7718C190.148 16.3774 190.149 19.9848 190.139 23.5901C190.073 25.3116 188.539 26.7871 186.829 26.8176C185.746 26.8217 184.662 26.8211 183.578 26.8205H183.575C182.93 26.8201 182.286 26.8197 181.642 26.8203V18.8461C182.823 19.8166 184.428 19.9677 185.899 19.9703C187.008 19.97 188.111 19.7987 189.188 19.5424V18.0815C187.974 18.6875 186.547 19.0725 185.201 18.7243C184.263 18.4903 183.581 17.5816 183.597 16.6113C183.488 15.6022 184.078 14.5369 185.068 14.2369C186.297 13.8514 187.637 14.1462 188.789 14.6473L188.841 14.6747C189.069 14.7964 189.28 14.9085 189.188 14.5241V13.3758C187.261 12.9166 185.21 12.7476 183.274 13.2472C182.714 13.4055 182.168 13.6455 181.713 14.0141Z" fill="#999999"></path><path fill-rule="evenodd" clip-rule="evenodd" d="M166.5 0.918457C164.358 0.918457 162.622 2.65792 162.622 4.80365V28.1148C162.622 30.2605 164.358 32 166.5 32H205.288C207.43 32 209.166 30.2605 209.166 28.1148V4.80365C209.166 2.65792 207.43 0.918457 205.288 0.918457H166.5ZM201.409 23.5973C201.409 26.267 199.249 28.4319 196.583 28.4319H170.379V9.32186C170.379 6.6514 172.539 4.48654 175.206 4.48654H201.409L201.409 23.5973Z" fill="#999999"></path><path d="M144.929 18.1064C145.213 17.4248 146.177 14.8687 146.177 14.8687C146.177 14.9255 146.46 14.1871 146.574 13.7895L146.8 14.8119C146.8 14.8119 147.424 17.5952 147.538 18.1632H144.929V18.1064Z" fill="#999999"></path><path fill-rule="evenodd" clip-rule="evenodd" d="M112.606 0.918457C110.464 0.918457 108.728 2.65792 108.728 4.80365V28.1148C108.728 30.2605 110.464 32 112.606 32H151.394C153.536 32 155.272 30.2605 155.272 28.1148V4.80365C155.272 2.65792 153.536 0.918457 151.394 0.918457H112.606ZM140.279 18.4472C140.279 20.8329 138.124 22.4233 134.779 22.4233C133.361 22.4233 132 22.1393 131.263 21.7985L131.716 19.1856L132.113 19.3561C133.134 19.8105 133.815 19.9809 135.062 19.9809C135.969 19.9809 136.933 19.6401 136.933 18.8448C136.933 18.3336 136.536 17.9928 135.289 17.4248C134.098 16.8568 132.51 15.948 132.51 14.3008C132.51 12.0287 134.722 10.4951 137.841 10.4951C139.032 10.4951 140.052 10.7223 140.676 11.0063L140.222 13.5055L139.996 13.2783C139.428 13.0511 138.691 12.8239 137.614 12.8239C136.423 12.8807 135.856 13.3919 135.856 13.8464C135.856 14.3576 136.536 14.7552 137.614 15.2664C139.428 16.1184 140.279 17.084 140.279 18.4472ZM148.785 10.6655H146.347C145.609 10.6655 145.042 10.8927 144.702 11.6311L140.052 22.2529H143.341C143.341 22.2529 143.908 20.8328 144.022 20.492H148.048C148.161 20.8896 148.445 22.1961 148.445 22.1961H151.394L148.785 10.6655ZM112.663 10.5519L112.606 10.7791C116.406 11.6879 118.901 13.9032 119.978 16.6296L118.901 11.5175C118.731 10.7791 118.22 10.5519 117.54 10.5519H112.663ZM126.84 10.6655L121.906 22.1961H118.56L115.725 12.5399C117.767 13.8464 119.468 15.8912 120.092 17.3112L120.432 18.504L123.494 10.6087H126.84V10.6655ZM131.263 10.6087H128.144L126.159 22.1961H129.278L131.263 10.6087Z" fill="#999999"></path><path fill-rule="evenodd" clip-rule="evenodd" d="M82.6809 13.6076C82.5313 12.046 81.1852 11.5226 79.4865 11.3734V9.20766H78.1706V11.3167C77.8247 11.3167 77.4708 11.3235 77.1194 11.3309V9.20828H75.8041V11.3734L75.7892 11.3737C75.5095 11.3792 75.2343 11.3845 74.9665 11.3845V11.3777H73.1508V12.7877C73.1508 12.7877 74.1227 12.7692 74.1067 12.7877C74.4741 12.7402 74.812 12.9979 74.8637 13.3653V15.8314C74.9099 15.8314 74.9566 15.8344 75.0028 15.8406H74.8637V19.2973C74.8483 19.5544 74.6286 19.7498 74.3725 19.7344C74.3892 19.7492 73.4149 19.7344 73.4149 19.7344L73.1533 21.309H74.8662C75.0734 21.309 75.2784 21.3113 75.4809 21.3136C75.59 21.3149 75.6983 21.3161 75.806 21.317V23.5074H77.1206V21.3398C77.4813 21.3472 77.8309 21.3503 78.1719 21.3503V23.508H79.4859V21.3213C81.7016 21.1943 83.2477 20.6358 83.4397 18.5544C83.5948 16.8782 82.8076 16.1304 81.5521 15.8283C82.3885 15.4312 82.852 14.5188 82.6809 13.6076ZM80.2276 14.1982C80.2276 15.5637 78.2656 15.5313 77.3665 15.5164C77.2849 15.5151 77.212 15.5139 77.1502 15.5139V12.8814C77.2245 12.8813 77.3147 12.8788 77.4168 12.876C78.3361 12.8507 80.2245 12.7988 80.2245 14.197L80.2276 14.1982ZM80.8393 18.293C80.8393 19.7951 78.4836 19.762 77.4061 19.7468C77.3094 19.7455 77.223 19.7442 77.1496 19.7443V16.8418C77.2386 16.8417 77.3467 16.8391 77.4691 16.8362C78.5726 16.8094 80.8393 16.7558 80.8393 18.293Z" fill="#999999"></path><path fill-rule="evenodd" clip-rule="evenodd" d="M58.7127 0.918457C56.5706 0.918457 54.834 2.65792 54.834 4.80365V28.1148C54.834 30.2605 56.5705 32 58.7127 32H97.5C99.6422 32 101.379 30.2605 101.379 28.1148V4.80365C101.379 2.65792 99.6422 0.918457 97.5 0.918457H58.7127ZM89.7425 16.4642C89.7401 22.9017 84.5276 28.1179 78.1014 28.1148C71.6753 28.1123 66.4677 22.8918 66.4702 16.4543C66.4726 10.0193 71.6808 4.80427 78.1051 4.80365C84.5319 4.80303 89.7419 10.0217 89.7425 16.4592V16.4642Z" fill="#999999"></path><path d="M9.822 14.4292C9.75867 14.8718 9.59475 15.1625 9.32964 15.3017C9.06447 15.441 8.68574 15.5104 8.19344 15.5104L7.56847 15.5293L7.89048 13.4996C7.9156 13.3606 7.99762 13.291 8.1366 13.291H8.49652C9.00126 13.291 9.36761 13.3639 9.59486 13.5091C9.822 13.6546 9.89777 13.9614 9.822 14.4292Z" fill="#999999"></path><path d="M36.3721 18.6027C36.8265 18.6027 37.2148 18.4447 37.5368 18.1286C37.8587 17.8126 38.0196 17.4268 38.0197 16.9716C38.0197 16.6047 37.9026 16.317 37.6693 16.1083C37.4355 15.8997 37.1419 15.7954 36.7887 15.7954C36.3216 15.7954 35.9298 15.9566 35.6147 16.2791C35.2989 16.6015 35.141 16.9971 35.141 17.4646C35.141 17.8191 35.2547 18.0974 35.482 18.2992C35.7094 18.5017 36.0058 18.6027 36.3721 18.6027Z" fill="#999999"></path><path d="M16.0238 18.1379C15.7018 18.4481 15.3071 18.6027 14.8402 18.6027C14.4739 18.6027 14.1804 18.5017 13.9596 18.2992C13.7385 18.0974 13.6282 17.8191 13.6282 17.4646C13.6282 16.9971 13.7859 16.6015 14.1016 16.2791C14.4171 15.9566 14.8085 15.7954 15.2758 15.7954C15.6291 15.7954 15.9226 15.8997 16.1564 16.1083C16.3898 16.317 16.5067 16.6047 16.5067 16.9716C16.5066 17.4395 16.3457 17.8284 16.0238 18.1379Z" fill="#999999"></path><path d="M29.7063 15.5102C30.2616 15.5102 30.6783 15.4154 30.9561 15.2257C31.2337 15.0359 31.3727 14.6757 31.3727 14.1443C31.3727 13.8916 31.297 13.6986 31.1454 13.5658C30.994 13.433 30.8359 13.3541 30.6721 13.3287C30.5077 13.3035 30.2868 13.2908 30.009 13.2908H29.6683C29.5292 13.2908 29.4471 13.3605 29.4221 13.4994L29.1002 15.5292L29.7063 15.5102Z" fill="#999999"></path><path fill-rule="evenodd" clip-rule="evenodd" d="M0.939941 4.80365C0.939941 2.65792 2.67651 0.918457 4.81867 0.918457H43.606C45.7481 0.918457 47.4847 2.65792 47.4847 4.80365V28.1148C47.4847 30.2605 45.7481 32 43.606 32H4.81867C2.67651 32 0.939941 30.2605 0.939941 28.1148V4.80365ZM11.3842 12.1053C10.8981 11.7705 10.2636 11.6028 9.481 11.6028H6.45103C6.2111 11.6028 6.07855 11.7229 6.05337 11.9631L4.82253 19.7023C4.80974 19.7783 4.82873 19.8478 4.87932 19.911C4.92962 19.9743 4.99289 20.0058 5.06866 20.0058H6.50787C6.7603 20.0058 6.89905 19.8859 6.92452 19.6454L7.26534 17.559C7.27778 17.4578 7.32218 17.3756 7.39795 17.3123C7.47366 17.2491 7.56836 17.2078 7.68198 17.1889C7.79561 17.1701 7.90275 17.1606 8.00393 17.1606C8.10482 17.1606 8.2247 17.167 8.36379 17.1796C8.50254 17.1922 8.59099 17.1984 8.6289 17.1984C9.71456 17.1984 10.5667 16.892 11.1854 16.2784C11.8039 15.6652 12.1134 14.8149 12.1134 13.7271C12.1134 12.981 11.8701 12.4406 11.3842 12.1053ZM41.9583 11.6027H43.3595C43.5236 11.6027 43.6059 11.6914 43.6059 11.8686V11.8874L42.3751 19.6457C42.3495 19.8861 42.2168 20.006 41.9774 20.006H40.7273C40.6517 20.006 40.5882 19.9776 40.5381 19.9208C40.4874 19.8638 40.4622 19.804 40.4622 19.7405L40.4812 19.7026L41.7121 11.8115C41.7371 11.6723 41.8191 11.6027 41.9583 11.6027ZM26.4298 14.6569C26.4298 14.5939 26.4045 14.5337 26.3543 14.477C26.3037 14.4201 26.2468 14.3914 26.1838 14.3914H24.7257C24.5865 14.3914 24.4729 14.455 24.3847 14.5811L22.3774 17.5403L21.5442 14.695C21.4807 14.4928 21.342 14.3914 21.1276 14.3914H19.707C19.6438 14.3914 19.587 14.42 19.5368 14.477C19.4862 14.5337 19.461 14.594 19.461 14.657C19.461 14.6824 19.5842 15.0554 19.8303 15.7762C20.0764 16.4972 20.3415 17.2749 20.6256 18.1096C20.9097 18.9441 21.0579 19.387 21.0706 19.4371C20.0353 20.8537 19.5179 21.6124 19.5179 21.7134C19.5179 21.878 19.5998 21.9601 19.7641 21.9601H21.2222C21.361 21.9601 21.4746 21.897 21.5631 21.7705L26.3922 14.7897C26.4173 14.7646 26.4298 14.7206 26.4298 14.6569ZM38.5688 14.3915H40.008C40.0837 14.3915 40.1467 14.4232 40.1975 14.4863C40.2479 14.5496 40.2668 14.619 40.2543 14.695L39.4777 19.6459C39.44 19.8863 39.301 20.0062 39.0614 20.0062H37.7546C37.5903 20.0062 37.5084 19.9054 37.5084 19.7028C37.5084 19.6526 37.5208 19.5765 37.5464 19.4751C37.5713 19.374 37.5842 19.3173 37.5842 19.3046C37.3692 19.5576 37.0728 19.7599 36.694 19.9116C36.3153 20.0632 35.9429 20.1392 35.5769 20.1392C34.8443 20.1392 34.2605 19.9182 33.825 19.4753C33.3895 19.0329 33.1718 18.4386 33.1718 17.6923C33.1718 16.7693 33.4904 15.966 34.128 15.2831C34.7654 14.6002 35.5388 14.2587 36.4478 14.2587C37.3191 14.2587 37.9183 14.5119 38.247 15.0176C38.2849 14.6002 38.3918 14.3915 38.5688 14.3915ZM18.4951 14.3915H17.0558C16.8788 14.3915 16.7717 14.6002 16.7338 15.0176C16.393 14.5119 15.7932 14.2587 14.9348 14.2587C14.0258 14.2587 13.2524 14.6002 12.6149 15.2831C11.9773 15.966 11.6586 16.7693 11.6586 17.6923C11.6586 18.4386 11.8764 19.0329 12.312 19.4753C12.7476 19.9182 13.3313 20.1392 14.0637 20.1392C14.417 20.1392 14.7833 20.0632 15.162 19.9116C15.5407 19.7599 15.8438 19.5576 16.071 19.3046C16.0204 19.4562 15.9952 19.5891 15.9952 19.7028C15.9952 19.9054 16.0773 20.0062 16.2414 20.0062H17.5481C17.7878 20.0062 17.9268 19.8863 17.9647 19.6459L18.7411 14.695C18.7535 14.619 18.7347 14.5496 18.6843 14.4863C18.6338 14.4232 18.5708 14.3915 18.4951 14.3915ZM30.994 11.6027C31.7768 11.6027 32.411 11.7705 32.8971 12.1053C33.383 12.4405 33.6262 12.981 33.6262 13.7271C33.6262 14.8149 33.3169 15.6652 32.6982 16.2784C32.0795 16.892 31.2275 17.1984 30.1416 17.1984C30.104 17.1984 30.0153 17.1922 29.8765 17.1796C29.7375 17.167 29.6177 17.1606 29.5168 17.1606C29.4155 17.1606 29.3084 17.1701 29.1949 17.1889C29.0811 17.2078 28.9866 17.2491 28.9108 17.3123C28.8349 17.3756 28.7907 17.4578 28.7782 17.559L28.4373 19.7592C28.3867 19.9237 28.2857 20.0058 28.1342 20.0058H26.5814C26.5057 20.0058 26.4422 19.9743 26.3922 19.911C26.3415 19.8478 26.3225 19.7782 26.3353 19.7022L27.5663 11.9631C27.5913 11.7229 27.7303 11.6027 27.9829 11.6027H30.994Z" fill="#999999"></path></svg>