<?xml version="1.0" encoding="UTF-8"?>
<svg id="Layer_1" xmlns="http://www.w3.org/2000/svg" version="1.1" viewBox="0 0 512 512">
  <!-- Generator: Adobe Illustrator 29.1.0, SVG Export Plug-In . SVG Version: 2.1.0 Build 142)  -->
  <defs>
    <style>
      .st0 {
        fill: #fff;
      }
    </style>
  </defs>
  <path class="st0" d="M489.7,511.4c-5.8,0-11.3-2.3-15.3-6.3l-218.4-218.4L37.6,505.1c-4.1,4.1-9.5,6.3-15.3,6.3s-11.3-2.3-15.3-6.3c-4.1-4.1-6.3-9.5-6.3-15.3s2.3-11.3,6.3-15.3l218.4-218.4L6.9,37.6C2.9,33.5.6,28.1.6,22.3S2.9,11,6.9,6.9C11,2.9,16.5.6,22.3.6s11.2,2.3,15.3,6.3l218.4,218.4L474.4,6.9c4.1-4.1,9.5-6.3,15.3-6.3s11.2,2.3,15.3,6.3c4.1,4.1,6.3,9.5,6.3,15.3s-2.3,11.2-6.3,15.3l-218.4,218.4,218.4,218.4c4.1,4.1,6.3,9.5,6.3,15.3s-2.3,11.2-6.3,15.3-9.5,6.3-15.3,6.3Z"/>
</svg>