<?xml version="1.0" encoding="UTF-8"?>
<svg id="Outline" xmlns="http://www.w3.org/2000/svg" version="1.1" viewBox="0 0 512 512">
  <!-- Generator: Adobe Illustrator 29.1.0, SVG Export Plug-In . SVG Version: 2.1.0 Build 142)  -->
  <defs>
    <style>
      .st0 {
        fill: #fff;
      }
    </style>
  </defs>
  <path class="st0" d="M373.3,40.9c-48.9.8-93.7,27.6-117.3,70.4-23.7-42.8-68.4-69.6-117.3-70.4C58.9,44.4-3,111.6,0,191.3c0,97,102.1,202.9,187.7,274.8,39.5,33.2,97.1,33.2,136.5,0,85.6-71.8,187.7-177.8,187.7-274.8,3-79.7-58.9-146.9-138.7-150.4ZM296.9,433.4c-23.6,19.9-58.1,19.9-81.7,0C105.5,341.5,42.7,253.2,42.7,191.3c-3-56.2,39.8-104.3,96-107.7,56.2,3.4,99,51.5,96,107.7,0,11.8,9.6,21.3,21.3,21.3s21.3-9.6,21.3-21.3c-3-56.2,39.8-104.3,96-107.7,56.2,3.4,99,51.5,96,107.7,0,61.9-62.9,150.2-172.5,242h0Z"/>
</svg>