<?xml version="1.0" encoding="UTF-8"?>
<svg id="Outline" xmlns="http://www.w3.org/2000/svg" version="1.1" viewBox="0 0 512 512">
  <!-- Generator: Adobe Illustrator 29.1.0, SVG Export Plug-In . SVG Version: 2.1.0 Build 142)  -->
  <defs>
    <style>
      .st0 {
        fill: #fff;
      }
    </style>
  </defs>
  <path class="st0" d="M505.7,475.6l-127.3-127.3c74.7-91.4,61.2-226-30.2-300.7C256.9-27.1,122.3-13.6,47.6,77.7c-74.7,91.4-61.2,226,30.2,300.7,78.7,64.3,191.8,64.3,270.5,0l127.3,127.3c8.5,8.2,22,8,30.2-.5,8-8.3,8-21.4,0-29.6ZM213.3,384c-94.3,0-170.7-76.4-170.7-170.7S119.1,42.7,213.3,42.7s170.7,76.4,170.7,170.7c-.1,94.2-76.5,170.6-170.7,170.7Z"/>
</svg>