<?xml version="1.0" encoding="UTF-8"?>
<svg id="Layer_1" data-name="Layer 1" xmlns="http://www.w3.org/2000/svg" viewBox="0 0 343.67 512">
  <defs>
    <style>
      .cls-1 {
        fill: #fff;
      }
    </style>
  </defs>
  <path class="cls-1" d="M303.05,86.97c-10.82-25.58-28.85-47.28-51.57-62.63-11.36-7.68-23.9-13.77-37.3-17.93-13.39-4.17-27.64-6.41-42.34-6.41-19.6,0-38.39,3.99-55.44,11.2-25.59,10.83-47.29,28.86-62.64,51.57-7.67,11.36-13.76,23.91-17.93,37.3-4.17,13.4-6.41,27.64-6.4,42.34-.01,19.61,3.98,38.4,11.2,55.45,10.82,25.58,28.85,47.28,51.57,62.63,11.36,7.68,23.9,13.77,37.3,17.93,13.39,4.17,27.64,6.41,42.34,6.41,19.6,0,38.39-3.99,55.44-11.2,25.59-10.83,47.29-28.86,62.64-51.57,7.67-11.37,13.76-23.91,17.93-37.3,4.17-13.4,6.41-27.65,6.4-42.35.01-19.6-3.98-38.39-11.2-55.44h0ZM262.34,180.64c-7.43,17.59-19.92,32.63-35.6,43.23-7.85,5.29-16.48,9.48-25.69,12.35-9.21,2.86-18.99,4.41-29.21,4.41-13.62,0-26.48-2.75-38.22-7.71-17.6-7.44-32.64-19.92-43.23-35.61-5.3-7.84-9.49-16.47-12.35-25.68-2.86-9.21-4.41-19-4.41-29.22,0-13.62,2.75-26.48,7.71-38.22,7.43-17.59,19.92-32.63,35.6-43.23,7.85-5.3,16.48-9.48,25.69-12.35,9.21-2.86,18.99-4.41,29.21-4.41,13.62,0,26.48,2.75,38.22,7.71,17.6,7.44,32.64,19.92,43.23,35.61,5.3,7.84,9.49,16.47,12.35,25.68s4.41,19,4.41,29.21c0,13.63-2.75,26.49-7.71,38.23Z"/>
  <path class="cls-1" d="M330.17,423c-13.06-30.87-34.82-57.06-62.23-75.58-13.71-9.26-28.84-16.61-45-21.63-16.16-5.03-33.34-7.73-51.09-7.73-23.66,0-46.32,4.81-66.89,13.51-30.87,13.06-57.06,34.82-75.58,62.23-9.26,13.71-16.61,28.84-21.63,45-5.05,16.17-7.75,33.35-7.75,51.1,0,12.2,9.9,22.1,22.1,22.1s22.1-9.9,22.1-22.1c0-17.68,3.57-34.42,10.02-49.68,9.67-22.88,25.89-42.41,46.27-56.18,10.19-6.88,21.41-12.33,33.38-16.05s24.7-5.73,37.96-5.73c17.68,0,34.42,3.57,49.68,10.02,22.88,9.67,42.41,25.89,56.18,46.27,6.88,10.19,12.33,21.41,16.05,33.38s5.73,24.7,5.73,37.96c0,12.21,9.89,22.1,22.1,22.1s22.1-9.9,22.1-22.1c0-23.66-4.81-46.32-13.51-66.89h.01Z"/>
</svg>